<svg width="250.6" height="159.2" xmlns="http://www.w3.org/2000/svg">
 <style type="text/css">.st0{opacity:0.8;}
	.st1{fill:url(#SVGID_1_);}
	.st2{fill:#FFFFFF;}
	.st3{fill:#F5F5F5;}
	.st4{opacity:0.8;fill:#E0E0E0;enable-background:new    ;}
	.st5{fill:#FF5252;}
	.st6{fill:#FFFF00;}
	.st7{fill:#69F0AE;}
	.st8{fill:url(#SVGID_2_);}
	.st9{fill:#E0E0E0;}
	.st10{opacity:0.5;}
	.st11{fill:url(#SVGID_3_);}
	.st12{fill:#F45D5D;}
	.st13{fill:none;stroke:#FFFFFF;stroke-width:5;stroke-linecap:round;stroke-linejoin:round;}</style>

 <g>
  <title>Layer 1</title>
  <g id="svg_1" class="st0">
   <path id="svg_2" d="m236.832,149.1l-223.4,0l0,-142.7c0,-3.5 2.9,-6.4 6.4,-6.4l210.6,0c3.5,0 6.4,2.9 6.4,6.4l0,142.7z" class="st1"/>
  </g>
  <path id="svg_3" d="m22.9,2.6l204.4,0c3.5,0 6.4,2.9 6.4,6.4l0,140l-217.2,0l0,-140c0,-3.5 2.9,-6.4 6.4,-6.4z" class="st2"/>
  <rect id="svg_4" height="133.3" width="203.3" class="st3" y="11.1" x="23.5"/>
  <rect id="svg_5" height="119.9" width="202.4" class="st4" y="17.6" x="24.3"/>
  <rect id="svg_6" height="6.4" width="202.4" class="st3" y="11.2" x="24.3"/>
  <circle id="svg_7" r="1.5" cy="14.3" cx="28.6" class="st5"/>
  <circle id="svg_8" r="1.5" cy="14.3" cx="32.9" class="st6"/>
  <circle id="svg_9" r="1.5" cy="14.3" cx="37.1" class="st7"/>
  <g id="svg_10" class="st0">
   <path id="svg_11" d="m243.1,158.67099c-12.4,0.9 -226,0.6 -233.5,0c-9.8,-4.8 -9.6,-23 -9.6,-23l98,-0.7l0.3,5.6l41.9,0l1.6,-4.9l108.6,0c0,0 2.1,16.7 -7.3,23z" class="st8"/>
  </g>
  <path id="svg_12" d="m248.8,137.1l-106.4,0c1.2,1.3 1.1,3.4 -0.3,4.6c-0.6,0.5 -1.4,0.8 -2.2,0.8l-40.6,0c-1.8,0 -3.3,-1.4 -3.3,-3.2c0,-0.8 0.3,-1.6 0.8,-2.2l-95.3,0c0,0 -0.2,15.9 9.5,20c7.4,0.5 218.3,0.8 230.6,0c9.3,-5.4 7.2,-20 7.2,-20z" class="st3"/>
  <circle id="svg_13" r="1.3" cy="140.5" cx="23.6" class="st9"/>
  <circle id="svg_14" r="1.3" cy="140.5" cx="27.5" class="st9"/>
  <circle id="svg_15" r="1.3" cy="140.5" cx="31.4" class="st9"/>
  <g id="svg_16" class="st10">
   <ellipse id="svg_17" ry="26" rx="26" cy="74.886" cx="124.823" class="st11"/>
  </g>
  <ellipse id="svg_18" ry="24.4" rx="24.4" cy="74.8" cx="124.8" class="st12"/>
  <path id="svg_19" d="m135.9,64.5l-22.2,22.2m0,-22.2l22.2,22.2" class="st13"/>
 </g>
</svg>